<?xml version="1.0" encoding="UTF-8" standalone="no"?>
<!-- Created with Inkscape (http://www.inkscape.org/) -->

<svg
   xmlns:dc="http://purl.org/dc/elements/1.1/"
   xmlns:cc="http://creativecommons.org/ns#"
   xmlns:rdf="http://www.w3.org/1999/02/22-rdf-syntax-ns#"
   xmlns:svg="http://www.w3.org/2000/svg"
   xmlns="http://www.w3.org/2000/svg"
   xmlns:sodipodi="http://sodipodi.sourceforge.net/DTD/sodipodi-0.dtd"
   xmlns:inkscape="http://www.inkscape.org/namespaces/inkscape"
   id="svg2"
   version="1.1"
   inkscape:version="0.48.1 r9760"
   width="744.09448"
   height="1052.3622"
   sodipodi:docname="nixie-mask.svg">
  <metadata
     id="metadata8">
    <rdf:RDF>
      <cc:Work
         rdf:about="">
        <dc:format>image/svg+xml</dc:format>
        <dc:type
           rdf:resource="http://purl.org/dc/dcmitype/StillImage" />
        <dc:title></dc:title>
      </cc:Work>
    </rdf:RDF>
  </metadata>
  <defs
     id="defs6" />
  <sodipodi:namedview
     pagecolor="#ffffff"
     bordercolor="#666666"
     borderopacity="1"
     objecttolerance="10"
     gridtolerance="10"
     guidetolerance="10"
     inkscape:pageopacity="0"
     inkscape:pageshadow="2"
     inkscape:window-width="1680"
     inkscape:window-height="999"
     id="namedview4"
     showgrid="false"
     showguides="false"
     inkscape:zoom="2"
     inkscape:cx="353.33526"
     inkscape:cy="722.22709"
     inkscape:window-x="0"
     inkscape:window-y="29"
     inkscape:window-maximized="1"
     inkscape:current-layer="svg2" />
  <g
     id="g3806"
     style="stroke:#000000;stroke-opacity:1;opacity:1">
    <rect
       y="185.78738"
       x="115.57481"
       height="265.74802"
       width="265.74802"
       id="rect3764"
       style="opacity:1;fill:none;stroke:#000000;stroke-width:2;stroke-linecap:round;stroke-linejoin:round;stroke-miterlimit:4;stroke-opacity:1;stroke-dasharray:none" />
    <rect
       style="opacity:1;fill:none;stroke:#000000;stroke-width:2.38207293000000009;stroke-linecap:round;stroke-linejoin:round;stroke-miterlimit:4;stroke-opacity:1;stroke-dasharray:none"
       id="rect3766"
       width="316.51556"
       height="316.51556"
       x="90.19104"
       y="160.40361" />
  </g>
  <g
     id="g3824"
     transform="translate(75.5,5)">
    <path
       inkscape:transform-center-x="89.411216"
       style="fill:none;stroke:#000000;stroke-width:2.44471741;stroke-linecap:round;stroke-linejoin:round;stroke-miterlimit:4;stroke-opacity:1;stroke-dasharray:none"
       d="m 469.0262,127.24974 c -14.49169,0 -27.6974,7.01348 -37.73718,18.50808 l 0,109.40136 c 10.03978,11.49461 23.24549,18.46474 37.73718,18.46474 14.49377,0 27.73055,-6.9672 37.77085,-18.46474 l 0,-109.40136 c -10.0403,-11.49754 -23.27708,-18.50808 -37.77085,-18.50808 z"
       id="path3818"
       inkscape:connector-curvature="0" />
    <path
       inkscape:transform-center-x="81.580122"
       style="fill:none;stroke:#000000;stroke-width:1.97148049;stroke-linecap:round;stroke-linejoin:round;stroke-miterlimit:4;stroke-opacity:1;stroke-dasharray:none"
       d="m 469.02767,148.27296 c -13.22244,0 -25.27153,4.99883 -34.43197,13.19157 l 0,77.97548 c 9.16044,8.19274 21.20953,13.16068 34.43197,13.16068 13.22432,0 25.30176,-4.96585 34.46269,-13.16068 l 0,-77.97548 c -9.16093,-8.19483 -21.23837,-13.19157 -34.46269,-13.19157 z"
       id="path3820"
       inkscape:connector-curvature="0" />
  </g>
  <g
     transform="translate(-139,118.22456)"
     id="g3834"
     style="stroke:#000000;stroke-opacity:1">
    <path
       inkscape:connector-curvature="0"
       id="path3836"
       d="m 469.0262,127.24974 c -14.49169,0 -27.6974,7.01348 -37.73718,18.50808 l 0,109.40136 c 10.03978,11.49461 23.24549,18.46474 37.73718,18.46474 14.49377,0 27.73055,-6.9672 37.77085,-18.46474 l 0,-109.40136 c -10.0403,-11.49754 -23.27708,-18.50808 -37.77085,-18.50808 z"
       style="fill:none;stroke:#000000;stroke-width:2.44471741;stroke-linecap:round;stroke-linejoin:round;stroke-miterlimit:4;stroke-opacity:1;stroke-dasharray:none"
       inkscape:transform-center-x="89.411216" />
    <path
       inkscape:connector-curvature="0"
       id="path3838"
       d="m 469.02767,148.27296 c -13.22244,0 -25.27153,4.99883 -34.43197,13.19157 l 0,77.97548 c 9.16044,8.19274 21.20953,13.16068 34.43197,13.16068 13.22432,0 25.30176,-4.96585 34.46269,-13.16068 l 0,-77.97548 c -9.16093,-8.19483 -21.23837,-13.19157 -34.46269,-13.19157 z"
       style="fill:none;stroke:#000000;stroke-width:1.97148049;stroke-linecap:round;stroke-linejoin:round;stroke-miterlimit:4;stroke-opacity:1;stroke-dasharray:none"
       inkscape:transform-center-x="81.580122" />
  </g>
  <g
     id="g3840"
     transform="translate(-221.75,118.22456)"
     style="stroke:#000000;stroke-opacity:1">
    <path
       inkscape:transform-center-x="89.411216"
       style="fill:none;stroke:#000000;stroke-width:2.44471741;stroke-linecap:round;stroke-linejoin:round;stroke-miterlimit:4;stroke-opacity:1;stroke-dasharray:none"
       d="m 469.0262,127.24974 c -14.49169,0 -27.6974,7.01348 -37.73718,18.50808 l 0,109.40136 c 10.03978,11.49461 23.24549,18.46474 37.73718,18.46474 14.49377,0 27.73055,-6.9672 37.77085,-18.46474 l 0,-109.40136 c -10.0403,-11.49754 -23.27708,-18.50808 -37.77085,-18.50808 z"
       id="path3842"
       inkscape:connector-curvature="0" />
    <path
       inkscape:transform-center-x="81.580122"
       style="fill:none;stroke:#000000;stroke-width:1.97148049;stroke-linecap:round;stroke-linejoin:round;stroke-miterlimit:4;stroke-opacity:1;stroke-dasharray:none"
       d="m 469.02767,148.27296 c -13.22244,0 -25.27153,4.99883 -34.43197,13.19157 l 0,77.97548 c 9.16044,8.19274 21.20953,13.16068 34.43197,13.16068 13.22432,0 25.30176,-4.96585 34.46269,-13.16068 l 0,-77.97548 c -9.16093,-8.19483 -21.23837,-13.19157 -34.46269,-13.19157 z"
       id="path3844"
       inkscape:connector-curvature="0" />
  </g>
  <g
     transform="translate(-304.5,118.22456)"
     id="g3846"
     style="stroke:#000000;stroke-opacity:1">
    <path
       inkscape:connector-curvature="0"
       id="path3848"
       d="m 469.0262,127.24974 c -14.49169,0 -27.6974,7.01348 -37.73718,18.50808 l 0,109.40136 c 10.03978,11.49461 23.24549,18.46474 37.73718,18.46474 14.49377,0 27.73055,-6.9672 37.77085,-18.46474 l 0,-109.40136 c -10.0403,-11.49754 -23.27708,-18.50808 -37.77085,-18.50808 z"
       style="fill:none;stroke:#000000;stroke-width:2.44471741;stroke-linecap:round;stroke-linejoin:round;stroke-miterlimit:4;stroke-opacity:1;stroke-dasharray:none"
       inkscape:transform-center-x="89.411216" />
    <path
       inkscape:connector-curvature="0"
       id="path3850"
       d="m 469.02767,148.27296 c -13.22244,0 -25.27153,4.99883 -34.43197,13.19157 l 0,77.97548 c 9.16044,8.19274 21.20953,13.16068 34.43197,13.16068 13.22432,0 25.30176,-4.96585 34.46269,-13.16068 l 0,-77.97548 c -9.16093,-8.19483 -21.23837,-13.19157 -34.46269,-13.19157 z"
       style="fill:none;stroke:#000000;stroke-width:1.97148049;stroke-linecap:round;stroke-linejoin:round;stroke-miterlimit:4;stroke-opacity:1;stroke-dasharray:none"
       inkscape:transform-center-x="81.580122" />
  </g>
</svg>
